<svg width="980" height="760" viewBox="0 0 980 760" fill="none" xmlns="http://www.w3.org/2000/svg">
  <defs>
    <linearGradient id="sky" x1="166" y1="22" x2="807" y2="762" gradientUnits="userSpaceOnUse">
      <stop stop-color="#FFE7A6"/>
      <stop offset=".44" stop-color="#D7F3E1"/>
      <stop offset="1" stop-color="#78C6C8"/>
    </linearGradient>
    <linearGradient id="water" x1="104" y1="416" x2="853" y2="688" gradientUnits="userSpaceOnUse">
      <stop stop-color="#7DD7D4"/>
      <stop offset=".54" stop-color="#4EB4C2"/>
      <stop offset="1" stop-color="#2D8497"/>
    </linearGradient>
    <linearGradient id="duck" x1="307" y1="242" x2="690" y2="605" gradientUnits="userSpaceOnUse">
      <stop stop-color="#FFE56B"/>
      <stop offset=".58" stop-color="#F8BD34"/>
      <stop offset="1" stop-color="#E08A22"/>
    </linearGradient>
    <linearGradient id="bill" x1="638" y1="306" x2="773" y2="376" gradientUnits="userSpaceOnUse">
      <stop stop-color="#FF9D43"/>
      <stop offset="1" stop-color="#F05C2D"/>
    </linearGradient>
    <filter id="soft" x="-20%" y="-20%" width="140%" height="140%">
      <feDropShadow dx="0" dy="26" stdDeviation="28" flood-color="#185966" flood-opacity=".23"/>
    </filter>
    <filter id="inner" x="-20%" y="-20%" width="140%" height="140%">
      <feDropShadow dx="0" dy="10" stdDeviation="9" flood-color="#B66617" flood-opacity=".22"/>
    </filter>
  </defs>

  <rect width="980" height="760" rx="64" fill="url(#sky)"/>
  <circle cx="176" cy="147" r="83" fill="#FFF0A7"/>
  <circle cx="176" cy="147" r="110" stroke="#FFF4BD" stroke-width="20" stroke-opacity=".45"/>
  <path d="M31 470C118 414 179 414 272 462C368 512 450 489 524 451C628 396 712 396 944 491V760H31V470Z" fill="#83B96E"/>
  <path d="M58 512C149 466 242 465 345 520C450 576 525 570 634 524C758 472 849 481 958 533V760H58V512Z" fill="#4C9E7C"/>
  <ellipse cx="493" cy="573" rx="394" ry="121" fill="url(#water)"/>
  <path d="M117 568C188 591 261 591 336 568M419 625C499 649 593 644 654 617M680 557C747 538 823 541 882 563" stroke="#BFF5EF" stroke-width="15" stroke-linecap="round" opacity=".64"/>
  <path d="M189 628C246 647 305 648 365 631M604 674C672 691 746 686 803 662" stroke="#D8FFF8" stroke-width="9" stroke-linecap="round" opacity=".48"/>

  <g filter="url(#soft)">
    <path d="M250 489C250 395 335 331 455 336C564 341 662 406 695 500C710 544 679 592 628 606C535 632 414 636 319 610C279 599 250 546 250 489Z" fill="url(#duck)"/>
    <path d="M345 448C424 463 502 456 571 421C541 510 456 553 353 527C321 519 312 457 345 448Z" fill="#F4A52C" filter="url(#inner)" opacity=".64"/>
    <path d="M423 339C424 257 492 199 580 206C657 212 711 273 707 349C703 421 638 464 550 458C475 453 422 406 423 339Z" fill="url(#duck)"/>
    <path d="M669 326C724 310 780 323 819 360C777 392 718 397 671 374C651 364 650 332 669 326Z" fill="url(#bill)"/>
    <path d="M675 363C718 376 765 374 807 356" stroke="#C24428" stroke-width="8" stroke-linecap="round" opacity=".48"/>
    <circle cx="621" cy="318" r="16" fill="#263A38"/>
    <circle cx="627" cy="312" r="5" fill="#FFF7D8"/>
    <path d="M476 270C507 240 554 229 596 239" stroke="#FFF39C" stroke-width="18" stroke-linecap="round" opacity=".55"/>
    <path d="M337 485C402 513 483 512 550 482" stroke="#FFD964" stroke-width="16" stroke-linecap="round" opacity=".46"/>
  </g>

  <g opacity=".86">
    <path d="M121 374C147 330 186 330 212 374" stroke="#FEF8DA" stroke-width="10" stroke-linecap="round"/>
    <path d="M233 310C256 273 289 273 312 310" stroke="#FEF8DA" stroke-width="9" stroke-linecap="round"/>
    <path d="M759 218C783 180 818 180 842 218" stroke="#FEF8DA" stroke-width="9" stroke-linecap="round"/>
  </g>

  <g opacity=".82">
    <path d="M117 482C103 434 122 398 174 378C188 421 168 462 117 482Z" fill="#6EBD5A"/>
    <path d="M844 502C851 451 884 421 940 417C939 466 905 499 844 502Z" fill="#6EBD5A"/>
    <path d="M164 390C133 438 120 481 123 526" stroke="#357B59" stroke-width="9" stroke-linecap="round"/>
    <path d="M929 430C887 464 860 500 849 542" stroke="#357B59" stroke-width="9" stroke-linecap="round"/>
  </g>
</svg>
